<mxfile host="app.diagrams.net" agent="Mozilla/5.0 (Windows NT 10.0; Win64; x64; rv:135.0) Gecko/20100101 Firefox/135.0" version="26.0.16">
  <diagram name="Page-1" id="9Gpt3UPF2AyzyX8SXsZh">
    <mxGraphModel dx="4225" dy="3438" grid="1" gridSize="10" guides="1" tooltips="1" connect="1" arrows="1" fold="1" page="1" pageScale="1" pageWidth="850" pageHeight="1100" math="0" shadow="0">
      <root>
        <mxCell id="0" />
        <mxCell id="1" parent="0" />
        <mxCell id="hbQT5JvmXpMdMmtxpOVG-1" value="" style="endArrow=none;html=1;rounded=0;exitX=0.298;exitY=0.15;exitDx=0;exitDy=0;exitPerimeter=0;fillColor=#fff2cc;strokeColor=#000000;strokeWidth=3;dashed=1;dashPattern=12 12;" parent="1" edge="1">
          <mxGeometry width="50" height="50" relative="1" as="geometry">
            <mxPoint x="1190" y="960" as="sourcePoint" />
            <mxPoint x="1510" y="960" as="targetPoint" />
          </mxGeometry>
        </mxCell>
        <mxCell id="hbQT5JvmXpMdMmtxpOVG-2" value="" style="triangle;whiteSpace=wrap;html=1;rotation=-90;fillColor=#fff2cc;strokeColor=#d6b656;strokeWidth=4;" parent="1" vertex="1">
          <mxGeometry x="175" y="-160" width="965" height="1290" as="geometry" />
        </mxCell>
        <mxCell id="hbQT5JvmXpMdMmtxpOVG-3" value="&lt;div style=&quot;line-height: 200%;&quot; align=&quot;right&quot;&gt;&lt;span style=&quot;color: rgb(0, 0, 0);&quot;&gt;&lt;b&gt;&lt;font style=&quot;font-size: 20px;&quot;&gt;MOST IMPORTANT&lt;/font&gt;&lt;/b&gt;&lt;/span&gt;&lt;br&gt;&lt;/div&gt;" style="text;whiteSpace=wrap;html=1;" parent="1" vertex="1">
          <mxGeometry x="1500" y="180" width="240" height="60" as="geometry" />
        </mxCell>
        <mxCell id="hbQT5JvmXpMdMmtxpOVG-4" value="&lt;div style=&quot;line-height: 200%;&quot; align=&quot;right&quot;&gt;&lt;b&gt;&lt;font style=&quot;font-size: 20px; color: rgb(0, 0, 0);&quot;&gt;LEAST IMPORTANT&lt;/font&gt;&lt;span style=&quot;color: rgba(0, 0, 0, 0);&quot;&gt;&lt;span style=&quot;color: rgba(0, 0, 0, 0);&quot;&gt;&lt;br&gt;&lt;/span&gt;&lt;/span&gt;&lt;/b&gt;&lt;/div&gt;" style="text;whiteSpace=wrap;html=1;" parent="1" vertex="1">
          <mxGeometry x="1500" y="810" width="240" height="60" as="geometry" />
        </mxCell>
        <mxCell id="hbQT5JvmXpMdMmtxpOVG-5" value="" style="endArrow=none;html=1;rounded=0;entryX=0.586;entryY=0.707;entryDx=0;entryDy=0;entryPerimeter=0;exitX=0.589;exitY=0.296;exitDx=0;exitDy=0;exitPerimeter=0;fillColor=#fff2cc;strokeColor=#d6b656;strokeWidth=3;" parent="1" edge="1">
          <mxGeometry width="50" height="50" relative="1" as="geometry">
            <mxPoint x="392.41000000000025" y="400.00499999999977" as="sourcePoint" />
            <mxPoint x="922.6000000000007" y="402.9000000000002" as="targetPoint" />
          </mxGeometry>
        </mxCell>
        <mxCell id="hbQT5JvmXpMdMmtxpOVG-6" value="" style="endArrow=none;html=1;rounded=0;entryX=0.298;entryY=0.851;entryDx=0;entryDy=0;entryPerimeter=0;exitX=0.298;exitY=0.15;exitDx=0;exitDy=0;exitPerimeter=0;fillColor=#fff2cc;strokeColor=#d6b656;strokeWidth=3;" parent="1" source="hbQT5JvmXpMdMmtxpOVG-2" target="hbQT5JvmXpMdMmtxpOVG-2" edge="1">
          <mxGeometry width="50" height="50" relative="1" as="geometry">
            <mxPoint x="580" y="680" as="sourcePoint" />
            <mxPoint x="1111" y="683" as="targetPoint" />
          </mxGeometry>
        </mxCell>
        <mxCell id="hbQT5JvmXpMdMmtxpOVG-7" value="&lt;div align=&quot;left&quot;&gt;&lt;ul&gt;&lt;li&gt;&lt;font style=&quot;font-size: 20px;&quot;&gt;Existence and representation&lt;/font&gt;&lt;/li&gt;&lt;li&gt;&lt;font style=&quot;font-size: 20px;&quot;&gt;Ownership and control&lt;/font&gt;&lt;/li&gt;&lt;li&gt;&lt;font style=&quot;font-size: 20px;&quot;&gt;Consent&lt;/font&gt;&lt;/li&gt;&lt;/ul&gt;&lt;/div&gt;" style="rounded=1;whiteSpace=wrap;html=1;align=left;fillColor=#ffe6cc;strokeColor=#000000;strokeWidth=2;" parent="1" vertex="1">
          <mxGeometry x="910" y="745" width="370" height="190" as="geometry" />
        </mxCell>
        <mxCell id="hbQT5JvmXpMdMmtxpOVG-8" value="&lt;div align=&quot;left&quot;&gt;&lt;ul&gt;&lt;li&gt;&lt;font style=&quot;font-size: 20px;&quot;&gt;Security and protection&lt;/font&gt;&lt;/li&gt;&lt;li&gt;&lt;font style=&quot;font-size: 20px;&quot;&gt;Persistence&lt;/font&gt;&lt;/li&gt;&lt;li&gt;&lt;font style=&quot;font-size: 20px;&quot;&gt;Privacy and minimal disclosure&lt;/font&gt;&lt;/li&gt;&lt;/ul&gt;&lt;/div&gt;" style="rounded=1;whiteSpace=wrap;html=1;align=left;fillColor=#d5e8d4;strokeColor=#000000;strokeWidth=2;" parent="1" vertex="1">
          <mxGeometry x="470" y="460" width="370" height="190" as="geometry" />
        </mxCell>
        <mxCell id="hbQT5JvmXpMdMmtxpOVG-9" value="&lt;div align=&quot;left&quot;&gt;&lt;ul&gt;&lt;li&gt;&lt;font style=&quot;font-size: 20px;&quot;&gt;Decentralization and autonomy&lt;/font&gt;&lt;/li&gt;&lt;li&gt;&lt;font style=&quot;font-size: 20px;&quot;&gt;Verifiability and authenticity&lt;/font&gt;&lt;/li&gt;&lt;li&gt;&lt;font style=&quot;font-size: 20px;&quot;&gt;Usability and consistency&lt;/font&gt;&lt;/li&gt;&lt;li&gt;&lt;font style=&quot;font-size: 20px;&quot;&gt;Access and availability&lt;/font&gt;&lt;/li&gt;&lt;/ul&gt;&lt;/div&gt;" style="rounded=1;whiteSpace=wrap;html=1;align=left;fillColor=#fff2cc;strokeColor=#000000;strokeWidth=2;" parent="1" vertex="1">
          <mxGeometry x="18.000000000000114" y="755" width="370" height="180" as="geometry" />
        </mxCell>
        <mxCell id="hbQT5JvmXpMdMmtxpOVG-10" value="&lt;b&gt;&lt;font style=&quot;font-size: 25px;&quot;&gt;Controllability&lt;/font&gt;&lt;/b&gt;" style="rounded=1;whiteSpace=wrap;html=1;fillColor=#f0a30a;fontColor=#000000;strokeColor=#000000;strokeWidth=2;" parent="1" vertex="1">
          <mxGeometry x="910" y="725" width="370" height="60" as="geometry" />
        </mxCell>
        <mxCell id="hbQT5JvmXpMdMmtxpOVG-11" value="&lt;div&gt;&lt;b&gt;&lt;font style=&quot;font-size: 25px;&quot;&gt;Usability&lt;/font&gt;&lt;/b&gt;&lt;br&gt;&lt;/div&gt;" style="rounded=1;whiteSpace=wrap;html=1;fillColor=#e3c800;fontColor=#000000;strokeColor=#000000;strokeWidth=2;" parent="1" vertex="1">
          <mxGeometry x="18.000000000000114" y="725" width="370" height="60" as="geometry" />
        </mxCell>
        <mxCell id="hbQT5JvmXpMdMmtxpOVG-12" value="&lt;span data-darkreader-inline-color=&quot;&quot; style=&quot;color: rgb(0, 0, 0); --darkreader-inline-color: var(--darkreader-text-ededed, #f9f5f0);&quot;&gt;&lt;b&gt;&lt;font style=&quot;font-size: 25px;&quot;&gt;Security&lt;font&gt;&lt;br&gt;&lt;/font&gt;&lt;/font&gt;&lt;/b&gt;&lt;/span&gt;" style="rounded=1;whiteSpace=wrap;html=1;fillColor=#66CC00;strokeColor=#000000;fontColor=#ffffff;strokeWidth=2;" parent="1" vertex="1">
          <mxGeometry x="470" y="440" width="370" height="60" as="geometry" />
        </mxCell>
        <mxCell id="hbQT5JvmXpMdMmtxpOVG-13" value="&lt;div align=&quot;left&quot;&gt;&lt;ul&gt;&lt;li&gt;&lt;font style=&quot;font-size: 20px;&quot;&gt;Cost&lt;/font&gt;&lt;/li&gt;&lt;li&gt;&lt;div&gt;&lt;font style=&quot;font-size: 20px;&quot;&gt;Standard&lt;/font&gt;&lt;/div&gt;&lt;/li&gt;&lt;/ul&gt;&lt;/div&gt;" style="rounded=1;whiteSpace=wrap;html=1;fillColor=#dae8fc;strokeColor=#000000;align=left;strokeWidth=2;" parent="1" vertex="1">
          <mxGeometry x="470" y="760" width="370" height="170" as="geometry" />
        </mxCell>
        <mxCell id="hbQT5JvmXpMdMmtxpOVG-14" value="&lt;div align=&quot;left&quot;&gt;&lt;ul&gt;&lt;li&gt;&lt;font style=&quot;font-size: 20px;&quot;&gt;Portability&lt;/font&gt;&lt;/li&gt;&lt;li&gt;&lt;font style=&quot;font-size: 20px;&quot;&gt;Transparency&lt;/font&gt;&lt;/li&gt;&lt;li&gt;&lt;font style=&quot;font-size: 20px;&quot;&gt;Interoperability&lt;/font&gt;&lt;/li&gt;&lt;/ul&gt;&lt;/div&gt;" style="rounded=1;whiteSpace=wrap;html=1;align=left;fillColor=#e1d5e7;strokeColor=#000000;strokeWidth=2;" parent="1" vertex="1">
          <mxGeometry x="470" y="145.8900000000001" width="370" height="190" as="geometry" />
        </mxCell>
        <mxCell id="hbQT5JvmXpMdMmtxpOVG-15" value="&lt;b&gt;&lt;font style=&quot;font-size: 25px;&quot;&gt;Portability&lt;/font&gt;&lt;/b&gt;" style="rounded=1;whiteSpace=wrap;html=1;fillColor=#6a00ff;fontColor=#ffffff;strokeColor=#000000;strokeWidth=2;" parent="1" vertex="1">
          <mxGeometry x="470" y="115.8900000000001" width="370" height="60" as="geometry" />
        </mxCell>
        <mxCell id="hbQT5JvmXpMdMmtxpOVG-16" value="&lt;font style=&quot;font-size: 25px;&quot;&gt;&lt;b&gt;Sustainability&lt;/b&gt;&lt;/font&gt;" style="rounded=1;whiteSpace=wrap;html=1;fillColor=#1ba1e2;fontColor=#ffffff;strokeColor=#000000;strokeWidth=2;" parent="1" vertex="1">
          <mxGeometry x="470" y="730" width="370" height="60" as="geometry" />
        </mxCell>
        <mxCell id="hbQT5JvmXpMdMmtxpOVG-17" value="" style="shape=doubleArrow;whiteSpace=wrap;html=1;rotation=90;fillColor=#1ba1e2;strokeColor=#006EAF;fontColor=#ffffff;strokeWidth=2;" parent="1" vertex="1">
          <mxGeometry x="1360" y="800" width="180" height="60" as="geometry" />
        </mxCell>
        <mxCell id="hbQT5JvmXpMdMmtxpOVG-18" value="" style="shape=doubleArrow;whiteSpace=wrap;html=1;rotation=90;fillColor=#f0a30a;fontColor=#000000;strokeColor=#BD7000;strokeWidth=2;" parent="1" vertex="1">
          <mxGeometry x="1312.5" y="160" width="275" height="60" as="geometry" />
        </mxCell>
        <mxCell id="hbQT5JvmXpMdMmtxpOVG-19" value="" style="endArrow=none;html=1;rounded=0;fillColor=#fff2cc;strokeColor=#000000;strokeWidth=3;dashed=1;dashPattern=12 12;" parent="1" edge="1">
          <mxGeometry width="50" height="50" relative="1" as="geometry">
            <mxPoint x="1240" y="680" as="sourcePoint" />
            <mxPoint x="1510" y="680" as="targetPoint" />
          </mxGeometry>
        </mxCell>
        <mxCell id="hbQT5JvmXpMdMmtxpOVG-20" value="" style="endArrow=none;html=1;rounded=0;fillColor=#fff2cc;strokeColor=#000000;strokeWidth=3;dashed=1;dashPattern=12 12;" parent="1" edge="1">
          <mxGeometry width="50" height="50" relative="1" as="geometry">
            <mxPoint x="1120" y="400" as="sourcePoint" />
            <mxPoint x="1510" y="400" as="targetPoint" />
          </mxGeometry>
        </mxCell>
        <mxCell id="hbQT5JvmXpMdMmtxpOVG-21" value="" style="endArrow=none;html=1;rounded=0;fillColor=#fff2cc;strokeColor=#000000;strokeWidth=3;dashed=1;dashPattern=12 12;" parent="1" edge="1">
          <mxGeometry width="50" height="50" relative="1" as="geometry">
            <mxPoint x="840" as="sourcePoint" />
            <mxPoint x="1510" as="targetPoint" />
          </mxGeometry>
        </mxCell>
        <mxCell id="hbQT5JvmXpMdMmtxpOVG-22" value="" style="verticalLabelPosition=bottom;verticalAlign=top;html=1;shape=mxgraph.basic.6_point_star;fillColor=#fff2cc;strokeColor=#000000;strokeWidth=2;" parent="1" vertex="1">
          <mxGeometry x="777.5" y="400" width="100" height="90" as="geometry" />
        </mxCell>
        <mxCell id="hbQT5JvmXpMdMmtxpOVG-23" value="&lt;font style=&quot;font-size: 25px;&quot;&gt;&lt;b&gt;&lt;font&gt;2nd&lt;/font&gt;&lt;/b&gt;&lt;/font&gt;" style="text;html=1;align=center;verticalAlign=middle;whiteSpace=wrap;rounded=0;" parent="1" vertex="1">
          <mxGeometry x="797.5" y="430" width="60" height="30" as="geometry" />
        </mxCell>
        <mxCell id="hbQT5JvmXpMdMmtxpOVG-24" value="" style="verticalLabelPosition=bottom;verticalAlign=top;html=1;shape=mxgraph.basic.6_point_star;fillColor=#fff2cc;strokeColor=#000000;strokeWidth=2;" parent="1" vertex="1">
          <mxGeometry x="325.5000000000001" y="690" width="100" height="90" as="geometry" />
        </mxCell>
        <mxCell id="hbQT5JvmXpMdMmtxpOVG-25" value="" style="verticalLabelPosition=bottom;verticalAlign=top;html=1;shape=mxgraph.basic.6_point_star;fillColor=#fff2cc;strokeColor=#000000;strokeWidth=2;" parent="1" vertex="1">
          <mxGeometry x="780" y="75.8900000000001" width="100" height="90" as="geometry" />
        </mxCell>
        <mxCell id="hbQT5JvmXpMdMmtxpOVG-28" value="" style="verticalLabelPosition=bottom;verticalAlign=top;html=1;shape=mxgraph.basic.6_point_star;fillColor=#fff2cc;strokeColor=#000000;strokeWidth=2;" parent="1" vertex="1">
          <mxGeometry x="780" y="690" width="100" height="90" as="geometry" />
        </mxCell>
        <mxCell id="hbQT5JvmXpMdMmtxpOVG-30" value="" style="verticalLabelPosition=bottom;verticalAlign=top;html=1;shape=mxgraph.basic.6_point_star;fillColor=#fff2cc;strokeColor=#000000;strokeWidth=2;" parent="1" vertex="1">
          <mxGeometry x="1220" y="685" width="100" height="90" as="geometry" />
        </mxCell>
        <mxCell id="hbQT5JvmXpMdMmtxpOVG-31" value="&lt;font style=&quot;font-size: 25px;&quot;&gt;&lt;b&gt;&lt;font&gt;5th&lt;/font&gt;&lt;/b&gt;&lt;/font&gt;" style="text;html=1;align=center;verticalAlign=middle;whiteSpace=wrap;rounded=0;" parent="1" vertex="1">
          <mxGeometry x="1240" y="715" width="60" height="30" as="geometry" />
        </mxCell>
        <mxCell id="UHlwmXnqUJ1irQo53hSn-1" value="&lt;font style=&quot;font-size: 25px;&quot;&gt;&lt;b&gt;&lt;font&gt;3th&lt;/font&gt;&lt;/b&gt;&lt;/font&gt;" style="text;html=1;align=center;verticalAlign=middle;whiteSpace=wrap;rounded=0;" parent="1" vertex="1">
          <mxGeometry x="345.5000000000001" y="720" width="60" height="30" as="geometry" />
        </mxCell>
        <mxCell id="UHlwmXnqUJ1irQo53hSn-2" value="&lt;font style=&quot;font-size: 25px;&quot;&gt;&lt;b&gt;&lt;font&gt;1st&lt;/font&gt;&lt;/b&gt;&lt;/font&gt;" style="text;html=1;align=center;verticalAlign=middle;whiteSpace=wrap;rounded=0;" parent="1" vertex="1">
          <mxGeometry x="800" y="105.8900000000001" width="60" height="30" as="geometry" />
        </mxCell>
        <mxCell id="UHlwmXnqUJ1irQo53hSn-3" value="&lt;font style=&quot;font-size: 25px;&quot;&gt;&lt;b&gt;&lt;font&gt;4th&lt;/font&gt;&lt;/b&gt;&lt;/font&gt;" style="text;html=1;align=center;verticalAlign=middle;whiteSpace=wrap;rounded=0;" parent="1" vertex="1">
          <mxGeometry x="800" y="720" width="60" height="30" as="geometry" />
        </mxCell>
      </root>
    </mxGraphModel>
  </diagram>
</mxfile>
